<?xml version="1.0" encoding="UTF-8"?>
<svg version="1.1" xmlns="http://www.w3.org/2000/svg" width="1024" height="1024">
<path d="M0 0 C0 -0.66 0 -1.32 0 -2 C0.66 -1.67 1.32 -1.34 2 -1 C1.67 -0.34 1.34 0.32 1 1 C1.52464844 1.12375 2.04929687 1.2475 2.58984375 1.375 C21.40710152 6.3845861 39.24147785 17.37607081 54.71166992 28.95263672 C57.5469676 31.27816726 57.5469676 31.27816726 61 32 C62.12419779 33.08906661 63.24006034 34.18747433 64.32421875 35.31640625 C69.23888176 40.25398144 74.57923252 44.79064426 79.875 49.3125 C94.99452829 62.57631154 108.33735947 78.47373251 118.65625 95.77734375 C119.93779725 98.09731811 119.93779725 98.09731811 122 100 C137.01000732 124.36050369 146.29174035 152.12942228 152 180 C152.17789062 180.81130371 152.35578125 181.62260742 152.5390625 182.45849609 C155.33210172 195.52870048 155.30763012 208.75665672 155.375 222.0625 C155.38705475 223.38880936 155.38705475 223.38880936 155.39935303 224.74191284 C155.5168035 241.80050615 153.58443384 258.33582997 149.3125 274.875 C149.05903809 275.86765869 148.80557617 276.86031738 148.54443359 277.88305664 C141.90764683 303.01087889 130.60674333 325.42887448 118 348 C117.47212891 348.94713867 116.94425781 349.89427734 116.40039062 350.87011719 C105.11613188 371.08144787 93.26558521 390.94912156 81.33300781 410.78222656 C80.13355128 412.77780589 78.93694014 414.77503959 77.7421875 416.7734375 C73.15089926 424.45117352 68.51989894 432.10458203 63.875 439.75 C63.30088379 440.69657471 62.72676758 441.64314941 62.13525391 442.6184082 C58.17213451 449.13265098 54.10679952 455.57562064 50 462 C47.59184488 465.79942788 45.19206802 469.60414535 42.79394531 473.40991211 C40.06286576 477.74204249 37.32074716 482.06650889 34.55859375 486.37890625 C34.00453857 487.24708984 33.4504834 488.11527344 32.87963867 489.00976562 C31.80919371 490.68655551 30.73524194 492.36111284 29.6574707 494.03320312 C29.17753662 494.78666016 28.69760254 495.54011719 28.203125 496.31640625 C27.77676758 496.98099854 27.35041016 497.64559082 26.91113281 498.33032227 C25.84032867 499.97558565 25.84032867 499.97558565 26 502 C25.42636719 502.56460938 24.85273437 503.12921875 24.26171875 503.7109375 C21.59206827 506.41286355 19.75389272 509.39210333 17.8125 512.625 C13.2768636 520.02497325 8.57315358 527.30547135 3.8125 534.5625 C3.07632937 535.68505514 2.34016404 536.80761376 1.60400391 537.93017578 C0.49303582 539.62401038 -0.61807141 541.31775295 -1.72958374 543.01123047 C-4.80787157 547.70247279 -7.87031067 552.40390781 -10.93017578 557.10717773 C-16.87491267 566.2432591 -22.86262377 575.34831166 -28.92578125 584.40625 C-29.3954834 585.10814453 -29.86518555 585.81003906 -30.34912109 586.53320312 C-31.58588753 588.3812197 -32.82329907 590.22880459 -34.06103516 592.07617188 C-39.11957106 599.637802 -44.12631723 607.23217339 -49.109375 614.84375 C-51.01101021 617.74461062 -52.91294745 620.64527303 -54.81494141 623.54589844 C-56.11369622 625.52860514 -57.4108768 627.51234385 -58.70654297 629.49707031 C-60.60711146 632.40730091 -62.51391961 635.3133586 -64.421875 638.21875 C-64.99387634 639.09801147 -65.56587769 639.97727295 -66.1552124 640.88317871 C-76.14601483 656.05468288 -76.14601483 656.05468288 -83.3125 657.8125 C-87.75287162 658.03828161 -89.34464106 657.51305927 -93 655 C-98.75007511 649.32571756 -103.13365815 642.6088794 -107.5368042 635.8822937 C-108.70819792 634.09339102 -109.8875165 632.30994137 -111.06884766 630.52758789 C-114.63876701 625.13570426 -118.18146615 619.72686353 -121.69921875 614.30078125 C-122.24296143 613.46853027 -122.7867041 612.6362793 -123.34692383 611.77880859 C-124.33827331 610.25986922 -125.32169522 608.73571487 -126.2956543 607.20556641 C-128.56640983 603.73126429 -130.19513701 601.64649901 -134 600 C-133.67 599.01 -133.34 598.02 -133 597 C-134.16169168 594.91278473 -135.36912108 593.06362982 -136.75 591.125 C-137.67774505 589.7786949 -138.60332845 588.43089893 -139.52734375 587.08203125 C-140.06601074 586.29908691 -140.60467773 585.51614258 -141.15966797 584.70947266 C-144.5266939 579.75228855 -147.79349466 574.72872231 -151.07116699 569.71221924 C-152.31887226 567.80274798 -153.56795184 565.89418228 -154.81738281 563.98583984 C-160.57699884 555.18700226 -166.32460888 546.3804071 -172.04296875 537.5546875 C-174.09664321 534.3856141 -176.16357731 531.2256563 -178.23828125 528.0703125 C-178.75583984 527.27979492 -179.27339844 526.48927734 -179.80664062 525.67480469 C-180.78481184 524.18090507 -181.76639435 522.68923154 -182.75195312 521.20019531 C-186 516.2255551 -186 516.2255551 -186 514 C-187.32 514.33 -188.64 514.66 -190 515 C-190 514.34 -190 513.68 -190 513 C-189.34 513 -188.68 513 -188 513 C-188 512.34 -188 511.68 -188 511 C-188.66 510.67 -189.32 510.34 -190 510 C-189.10087891 509.87238281 -189.10087891 509.87238281 -188.18359375 509.7421875 C-185.32799959 508.77159199 -184.70348013 507.64087935 -183.0625 505.125 C-182.47339844 504.23941406 -181.88429688 503.35382812 -181.27734375 502.44140625 C-180.93300293 501.91691895 -180.58866211 501.39243164 -180.23388672 500.85205078 C-178.7470059 498.62025856 -177.22051528 496.41791415 -175.69140625 494.21484375 C-174.50251125 492.49746015 -173.31370996 490.78001168 -172.125 489.0625 C-171.54113525 488.22154785 -170.95727051 487.3805957 -170.35571289 486.51416016 C-169.80778076 485.71671387 -169.25984863 484.91926758 -168.6953125 484.09765625 C-168.20047363 483.38101807 -167.70563477 482.66437988 -167.19580078 481.92602539 C-165.84148285 479.91068739 -165.84148285 479.91068739 -165 477 C-164.42378906 476.4328125 -163.84757813 475.865625 -163.25390625 475.28125 C-160.31432344 472.30600501 -158.20920927 468.99850299 -155.9375 465.5 C-154.86581704 463.87158324 -153.79280977 462.24403756 -152.71875 460.6171875 C-152.12835938 459.72225586 -151.53796875 458.82732422 -150.9296875 457.90527344 C-147.30678214 452.4507474 -143.61891456 447.04011047 -139.9375 441.625 C-139.12038498 440.42199559 -138.30332822 439.2189516 -137.48632812 438.01586914 C-133.78671421 432.5687751 -130.08428001 427.12360231 -126.38037109 421.6794281 C-124.79254026 419.3451486 -123.20544242 417.0103716 -121.61865234 414.67538452 C-120.83404546 413.52095582 -120.04921632 412.36667815 -119.26416016 411.21255493 C-114.76184064 404.59184901 -110.29237927 397.95116659 -105.875 391.2734375 C-105.45791275 390.64379593 -105.0408255 390.01415436 -104.61109924 389.36543274 C-102.60435916 386.33537395 -100.60248858 383.30230733 -98.60913086 380.26342773 C-97.54770874 378.65769897 -97.54770874 378.65769897 -96.46484375 377.01953125 C-95.842146 376.07182861 -95.21944824 375.12412598 -94.57788086 374.14770508 C-93 372 -93 372 -91 371 C-89.37500198 370.97901294 -87.74927183 371.00958463 -86.125 371.0625 C-45.35805589 371.30661344 -7.98813423 355.51770037 21 327 C49.71783181 298.59663076 64.20213314 261.36803736 65.3125 221.25 C64.9065351 200.73683242 61.47624998 164.47624998 46 149 C45.36715305 147.79849786 44.77208052 146.57679187 44.203125 145.34375 C42.10873479 141.06239984 39.61178711 137.3029799 36.75 133.5 C36.23912842 132.82074463 35.72825684 132.14148926 35.2019043 131.44165039 C23.71329662 116.58377937 9.94898796 104.7794206 -6 95 C-7.30130859 94.15115234 -7.30130859 94.15115234 -8.62890625 93.28515625 C-41.69009401 72.54549224 -85.00883463 68.56542276 -122.4375 77.125 C-150.10530053 83.86757324 -174.00305297 97.7738616 -194 118 C-194.7425 118.721875 -195.485 119.44375 -196.25 120.1875 C-218.04778101 142.48068512 -231.11122997 171.11480992 -235 202 C-235.0913623 202.70825928 -235.18272461 203.41651855 -235.27685547 204.14624023 C-238.63819308 231.78290643 -233.79899666 259.50824692 -222.0625 284.62109375 C-221.75530029 285.33144775 -221.44810059 286.04180176 -221.1315918 286.77368164 C-220.04005686 289.10587965 -220.04005686 289.10587965 -218.19067383 291.27124023 C-216.01879353 294.40595381 -215.21432624 296.15948318 -215 300 C-217.73867499 307.42694249 -223.08850305 313.83622833 -227.6875 320.1875 C-229.00784639 322.07487919 -230.32400298 323.96519625 -231.63598633 325.85839844 C-234.22199714 329.57993805 -236.82755163 333.2862518 -239.453125 336.97998047 C-243.83100875 343.15120196 -248.02521614 349.43186387 -252.1875 355.75 C-253.39925694 357.56803012 -254.61146585 359.3857591 -255.82421875 361.203125 C-259.95463795 367.42287575 -264.00304481 373.69369292 -268 380 C-271.7711136 375.56286634 -274.77056718 370.75958476 -277.8125 365.8125 C-278.37291992 364.90193848 -278.93333984 363.99137695 -279.51074219 363.05322266 C-300.65498081 328.48582538 -318.68157057 293.85850442 -324.640625 253.27734375 C-324.94904222 251.0509763 -324.94904222 251.0509763 -325.51239014 249.12715149 C-326.01977418 246.91373703 -326.14017083 244.9567487 -326.16113281 242.68823242 C-326.17058426 241.84098099 -326.18003571 240.99372955 -326.18977356 240.12080383 C-326.19638252 238.75196297 -326.19638252 238.75196297 -326.203125 237.35546875 C-326.21022995 236.40218185 -326.2173349 235.44889496 -326.22465515 234.46672058 C-326.45684977 194.09006438 -326.45684977 194.09006438 -323 178 C-322.76893555 176.91203125 -322.53787109 175.8240625 -322.29980469 174.703125 C-318.851017 158.94715408 -314.38276261 143.81531069 -308 129 C-307.66274902 128.20867676 -307.32549805 127.41735352 -306.97802734 126.60205078 C-295.01529888 98.93504755 -277.24516657 75.17729064 -256 54 C-255.24460937 53.22140625 -254.48921875 52.4428125 -253.7109375 51.640625 C-248.5920021 46.4018483 -243.29840016 41.63670205 -237.54296875 37.10546875 C-234.90434094 34.99034577 -234.90434094 34.99034577 -232.34765625 32.328125 C-229.71824955 29.72059357 -227.33046171 28.60118352 -224 27 C-222.64737457 26.11362966 -221.30738019 25.20785094 -219.9765625 24.2890625 C-213.95601934 20.23277657 -207.63009439 16.76057932 -201.2890625 13.23632812 C-200.391875 12.73166016 -199.4946875 12.22699219 -198.5703125 11.70703125 C-197.76352051 11.2581958 -196.95672852 10.80936035 -196.12548828 10.34692383 C-193.9709276 9.09387804 -193.9709276 9.09387804 -192.38818359 7.36352539 C-190.26269695 5.27579361 -187.89961206 5.42931149 -185 5 C-182.81300832 4.17711677 -180.64749218 3.29605743 -178.5 2.375 C-123.83627781 -20.26126266 -54.81886217 -24.80425089 0 0 Z " fill="#2C7B7F" transform="translate(598,170)"/>
<path d="M0 0 C6.31644824 -0.34534373 12.29150594 1.11848069 17.83984375 4.19140625 C19.5339386 6.43740168 19.8601345 7.655546 19.75390625 10.4609375 C18.46462687 14.31224642 16.41279338 17.48156482 14.21484375 20.87890625 C13.75827393 21.5958667 13.3017041 22.31282715 12.83129883 23.05151367 C9.95293224 27.54423982 6.98473087 31.96009431 3.88671875 36.3046875 C-10.70787126 54.0010883 -10.70787126 54.0010883 -18.47265625 74.37890625 C-18.51003906 75.11496094 -18.54742187 75.85101563 -18.5859375 76.609375 C-17.52390582 83.04976895 -13.71772027 87.04985199 -8.66015625 90.81640625 C-8.11117676 91.22536133 -7.56219727 91.63431641 -6.99658203 92.05566406 C1.34587786 98.16122966 10.08599205 103.70108551 18.83984375 109.19140625 C19.43667969 109.57441895 20.03351563 109.95743164 20.6484375 110.35205078 C26.95168537 114.37410452 32.29031329 116.68530627 39.83984375 115.19140625 C46.16652964 112.46224763 49.22465922 106.78666323 52.83984375 101.19140625 C53.70952066 99.85409203 54.57932058 98.51685781 55.44921875 97.1796875 C57.35298485 94.2464184 59.24869359 91.30810095 61.140625 88.3671875 C63.99524563 83.93767276 66.92096527 79.55788618 69.859375 75.18359375 C71.3373752 72.95055991 72.79115602 70.70936698 74.2265625 68.44921875 C74.83250244 67.49631958 74.83250244 67.49631958 75.45068359 66.52416992 C76.23182409 65.29215171 77.00968209 64.05804399 77.78369141 62.8215332 C82.34602285 55.62597233 82.34602285 55.62597233 87.27734375 54.19140625 C90.83984375 54.19140625 90.83984375 54.19140625 93.02734375 55.87890625 C103.44328657 74.91493967 102.73938859 102.78088418 96.83984375 123.19140625 C88.9283307 148.90382367 71.30056746 168.49311689 47.83984375 181.17773438 C37.4840253 186.42643533 25.28192795 191.25488239 13.5546875 189.66796875 C6.61073514 188.83122442 6.61073514 188.83122442 -0.16015625 190.19140625 C-6.72084961 195.56700326 -11.02746097 203.72236309 -14.6328125 211.27734375 C-16.32399097 214.50399116 -18.34180232 217.21631433 -20.55810547 220.09716797 C-23.21840105 223.57476863 -25.71430084 227.16591004 -28.22265625 230.75390625 C-28.80772949 231.59034668 -29.39280273 232.42678711 -29.99560547 233.28857422 C-41.95010614 250.44891929 -53.6172833 267.81595134 -65.18579102 285.23828125 C-69.65854996 291.96476846 -74.23525225 298.61800492 -78.82763672 305.26318359 C-80.98347957 308.38279643 -83.13509427 311.50530714 -85.28515625 314.62890625 C-85.72061768 315.26078857 -86.1560791 315.8926709 -86.60473633 316.54370117 C-89.55259581 320.82919263 -92.47494497 325.13130841 -95.38671875 329.44140625 C-96.51971827 331.11613833 -97.65289234 332.79075221 -98.78607178 334.46536255 C-99.87937291 336.08334967 -100.96927755 337.70363023 -102.05908203 339.32397461 C-106.21294771 345.46335112 -110.51659954 351.41253463 -115.16015625 357.19140625 C-119.38921591 353.47495988 -122.13499998 349.29858498 -125.08984375 344.52734375 C-127.48106927 340.67431245 -129.94114846 336.8698488 -132.41015625 333.06640625 C-132.87091553 332.35379639 -133.3316748 331.64118652 -133.80639648 330.90698242 C-136.29478819 327.05910837 -138.79561329 323.21992717 -141.3125 319.390625 C-142.07481934 318.22587646 -142.07481934 318.22587646 -142.85253906 317.03759766 C-143.83383689 315.53873092 -144.81875011 314.04222365 -145.80761719 312.54833984 C-149.16015625 307.4163762 -149.16015625 307.4163762 -149.16015625 305.19140625 C-149.82015625 304.86140625 -150.48015625 304.53140625 -151.16015625 304.19140625 C-152.23320409 302.49414776 -153.2431563 300.75681751 -154.22265625 299.00390625 C-156.26611005 295.40415114 -158.33647299 291.87369696 -160.62109375 288.421875 C-161.03222412 287.80014404 -161.44335449 287.17841309 -161.86694336 286.5378418 C-162.67551562 285.32474281 -163.49124577 284.11637867 -164.31469727 282.91333008 C-166.5089189 279.60935425 -167.16015625 278.29284585 -167.16015625 274.19140625 C-166.21728516 272.32299805 -166.21728516 272.32299805 -164.88671875 270.390625 C-164.15255737 269.30865845 -164.15255737 269.30865845 -163.40356445 268.20483398 C-162.86948975 267.43727783 -162.33541504 266.66972168 -161.78515625 265.87890625 C-160.66651978 264.2383814 -159.54803206 262.59775511 -158.4296875 260.95703125 C-157.87104004 260.14427734 -157.31239258 259.33152344 -156.73681641 258.49414062 C-154.61463261 255.39466128 -152.54352488 252.26276999 -150.47265625 249.12890625 C-147.2862131 244.32657306 -144.04944912 239.5597509 -140.79296875 234.8046875 C-140.01258642 233.66351165 -139.23223178 232.52231687 -138.4519043 231.38110352 C-136.90008333 229.11188321 -135.34349113 226.84603293 -133.78442383 224.58178711 C-133.07181396 223.54030518 -132.3592041 222.49882324 -131.625 221.42578125 C-130.66001587 220.02150879 -130.66001587 220.02150879 -129.67553711 218.58886719 C-128.02804093 216.19434203 -128.02804093 216.19434203 -127.16015625 213.19140625 C-126.50015625 213.19140625 -125.84015625 213.19140625 -125.16015625 213.19140625 C-124.88581757 212.45363449 -124.61147888 211.71586273 -124.3288269 210.95573425 C-123.23652548 208.37204706 -122.03311131 206.27555883 -120.46142578 203.9621582 C-119.91970734 203.15974197 -119.37798889 202.35732574 -118.81985474 201.53059387 C-118.23348236 200.67229477 -117.64710999 199.81399567 -117.04296875 198.9296875 C-116.43057343 198.02502243 -115.8181781 197.12035736 -115.18722534 196.1882782 C-113.2242957 193.29045645 -111.2549474 190.39706715 -109.28515625 187.50390625 C-107.3595508 184.66664395 -105.43528711 181.82847525 -103.51116943 178.99020386 C-102.24187664 177.11825818 -100.9718989 175.24677676 -99.70123291 173.37576294 C-95.12584583 166.63438627 -90.59131944 159.86687434 -86.09671021 153.07136536 C-83.90581596 149.76760579 -81.67702796 146.52039873 -79.32299805 143.33032227 C-76.93822467 140.51571832 -76.93822467 140.51571832 -77.1875 137.92578125 C-77.63802734 136.94351563 -77.63802734 136.94351563 -78.09765625 135.94140625 C-78.41476562 135.18472656 -78.731875 134.42804688 -79.05859375 133.6484375 C-79.42210937 132.83761719 -79.785625 132.02679688 -80.16015625 131.19140625 C-80.86173105 129.34251927 -81.54891723 127.48811737 -82.22265625 125.62890625 C-82.72925781 124.2521875 -82.72925781 124.2521875 -83.24609375 122.84765625 C-84.45441944 119.33628246 -85.30636368 115.80360557 -86.16015625 112.19140625 C-86.49015625 111.53140625 -86.82015625 110.87140625 -87.16015625 110.19140625 C-89.11028423 79.40893155 -83.71029766 55.11300785 -64.16015625 31.19140625 C-61.35579618 28.17671917 -59.0025797 25.75683803 -55.16015625 24.19140625 C-55.16015625 23.53140625 -55.16015625 22.87140625 -55.16015625 22.19140625 C-53.00680691 20.52065151 -50.8696117 18.99923665 -48.59765625 17.50390625 C-47.92162354 17.05837402 -47.24559082 16.6128418 -46.54907227 16.15380859 C-32.19356632 6.91160982 -17.02469237 1.50851705 0 0 Z " fill="#2C7B80" transform="translate(511.16015625,298.80859375)"/>
<path d="M0 0 C1 3 1 3 0.20239258 4.78320312 C-0.22920166 5.44255859 -0.6607959 6.10191406 -1.10546875 6.78125 C-1.58918945 7.53220947 -2.07291016 8.28316895 -2.57128906 9.05688477 C-3.10463867 9.86311279 -3.63798828 10.66934082 -4.1875 11.5 C-5.290503 13.20694181 -6.39336322 14.9139759 -7.49609375 16.62109375 C-8.07085449 17.50265137 -8.64561523 18.38420898 -9.23779297 19.29248047 C-12.10461468 23.69717052 -14.93001328 28.1277367 -17.75 32.5625 C-18.27489014 33.3771875 -18.79978027 34.191875 -19.34057617 35.03125 C-19.82115479 35.78535156 -20.3017334 36.53945313 -20.796875 37.31640625 C-21.22323242 37.98099854 -21.64958984 38.64559082 -22.08886719 39.33032227 C-23.15967133 40.97558565 -23.15967133 40.97558565 -23 43 C-23.57363281 43.56460938 -24.14726563 44.12921875 -24.73828125 44.7109375 C-27.40793173 47.41286355 -29.24610728 50.39210333 -31.1875 53.625 C-35.7231364 61.02497325 -40.42684642 68.30547135 -45.1875 75.5625 C-45.92367063 76.68505514 -46.65983596 77.80761376 -47.39599609 78.93017578 C-48.50696418 80.62401038 -49.61807141 82.31775295 -50.72958374 84.01123047 C-53.80787157 88.70247279 -56.87031067 93.40390781 -59.93017578 98.10717773 C-65.87491267 107.2432591 -71.86262377 116.34831166 -77.92578125 125.40625 C-78.63033447 126.4590918 -78.63033447 126.4590918 -79.34912109 127.53320312 C-80.58588753 129.3812197 -81.82329907 131.22880459 -83.06103516 133.07617188 C-88.11957106 140.637802 -93.12631723 148.23217339 -98.109375 155.84375 C-100.01101021 158.74461062 -101.91294745 161.64527303 -103.81494141 164.54589844 C-105.11369622 166.52860514 -106.4108768 168.51234385 -107.70654297 170.49707031 C-109.60711146 173.40730091 -111.51391961 176.3133586 -113.421875 179.21875 C-113.99387634 180.09801147 -114.56587769 180.97727295 -115.1552124 181.88317871 C-125.14601483 197.05468288 -125.14601483 197.05468288 -132.3125 198.8125 C-136.75287162 199.03828161 -138.34464106 198.51305927 -142 196 C-147.75007511 190.32571756 -152.13365815 183.6088794 -156.5368042 176.8822937 C-157.70819792 175.09339102 -158.8875165 173.30994137 -160.06884766 171.52758789 C-163.63876701 166.13570426 -167.18146615 160.72686353 -170.69921875 155.30078125 C-171.24296143 154.46853027 -171.7867041 153.6362793 -172.34692383 152.77880859 C-173.33827331 151.25986922 -174.32169522 149.73571487 -175.2956543 148.20556641 C-177.56640983 144.73126429 -179.19513701 142.64649901 -183 141 C-182.67 140.01 -182.34 139.02 -182 138 C-183.16169168 135.91278473 -184.36912108 134.06362982 -185.75 132.125 C-186.67774505 130.7786949 -187.60332845 129.43089893 -188.52734375 128.08203125 C-189.06601074 127.29908691 -189.60467773 126.51614258 -190.15966797 125.70947266 C-193.5266939 120.75228855 -196.79349466 115.72872231 -200.07116699 110.71221924 C-201.31887226 108.80274798 -202.56795184 106.89418228 -203.81738281 104.98583984 C-209.57699884 96.18700226 -215.32460888 87.3804071 -221.04296875 78.5546875 C-223.09664321 75.3856141 -225.16357731 72.2256563 -227.23828125 69.0703125 C-227.75583984 68.27979492 -228.27339844 67.48927734 -228.80664062 66.67480469 C-229.78481184 65.18090507 -230.76639435 63.68923154 -231.75195312 62.20019531 C-235 57.2255551 -235 57.2255551 -235 55 C-236.98 55.495 -236.98 55.495 -239 56 C-239 55.34 -239 54.68 -239 54 C-238.34 54 -237.68 54 -237 54 C-237 53.34 -237 52.68 -237 52 C-237.66 51.67 -238.32 51.34 -239 51 C-238.40058594 50.91492188 -237.80117188 50.82984375 -237.18359375 50.7421875 C-234.32799959 49.77159199 -233.70348013 48.64087935 -232.0625 46.125 C-231.47082031 45.24328125 -230.87914062 44.3615625 -230.26953125 43.453125 C-229.51261162 42.30235239 -228.75616183 41.1512707 -228 40 C-225.76445108 36.61516508 -223.50998882 33.24355041 -221.25 29.875 C-220.68289307 29.00891113 -220.11578613 28.14282227 -219.53149414 27.25048828 C-218.99000732 26.44337402 -218.44852051 25.63625977 -217.890625 24.8046875 C-217.40625977 24.07233887 -216.92189453 23.33999023 -216.42285156 22.58544922 C-215.95331055 22.06225098 -215.48376953 21.53905273 -215 21 C-214.01 21 -213.02 21 -212 21 C-218.5078125 30.76171875 -225.015625 40.5234375 -231.5234375 50.28515625 C-232.00474121 51.00711182 -232.48604492 51.72906738 -232.98193359 52.47290039 C-233.48587646 53.2288147 -233.48587646 53.2288147 -234 54 C-213.35394113 86.16987352 -213.35394113 86.16987352 -192.28491211 118.06298828 C-189.9764826 121.51372841 -187.71693545 124.98985221 -185.5 128.5 C-182.12884646 133.83184743 -178.63930409 139.07981759 -175.12890625 144.3203125 C-172.66755628 147.99546762 -170.22104525 151.68027517 -167.77734375 155.3671875 C-157.57040677 170.76432917 -157.57040677 170.76432917 -147.125 186 C-146.65594238 186.6811084 -146.18688477 187.3622168 -145.70361328 188.06396484 C-143.45235497 191.25733939 -141.4182468 194.02956435 -138 196 C-133.90976236 196.53021599 -131.69665074 196.38260207 -128.0625 194.38671875 C-124.69096987 191.75916147 -122.59750704 188.95369278 -120.375 185.375 C-119.50444707 184.02178734 -118.63332913 182.66893804 -117.76171875 181.31640625 C-117.31103027 180.60887207 -116.8603418 179.90133789 -116.39599609 179.17236328 C-114.04676485 175.51663407 -111.61044046 171.91959323 -109.1875 168.3125 C-105.19981234 162.34420199 -101.26934892 156.34200197 -97.375 150.3125 C-90.73034078 140.03399335 -83.92300112 129.86490002 -77.125 119.6875 C-68.24179665 106.3863858 -59.40825602 93.05844386 -50.7109375 79.63476562 C-48.87629968 76.80950716 -47.03285973 73.99014112 -45.1875 71.171875 C-37.84581885 59.95623835 -30.59504511 48.69087669 -23.46923828 37.33691406 C-21.94122059 34.90650773 -20.40705099 32.4800833 -18.87109375 30.0546875 C-13.70187244 21.89132074 -8.56021414 13.71461217 -3.5234375 5.46875 C-2.38464812 3.62332722 -1.20287175 1.80430763 0 0 Z " fill="#205454" transform="translate(647,629)"/>
<path d="M0 0 C7.83991749 0.47039505 14.72071135 3.22937188 22 6 C22 5.34 22 4.68 22 4 C22.66 4.33 23.32 4.66 24 5 C23.67 5.66 23.34 6.32 23 7 C23.52464844 7.12375 24.04929687 7.2475 24.58984375 7.375 C43.40710152 12.3845861 61.24147785 23.37607081 76.71166992 34.95263672 C79.5469676 37.27816726 79.5469676 37.27816726 83 38 C84.12419779 39.08906661 85.24006034 40.18747433 86.32421875 41.31640625 C91.23888176 46.25398144 96.57923252 50.79064426 101.875 55.3125 C116.99452829 68.57631154 130.33735947 84.47373251 140.65625 101.77734375 C141.93779725 104.09731811 141.93779725 104.09731811 144 106 C148.09598054 112.64757498 151.42542846 119.78653756 154.8125 126.8125 C155.20961182 127.62452881 155.60672363 128.43655762 156.01586914 129.27319336 C158.03927757 133.52440817 159.53353421 137.25122533 160 142 C157.92494062 139.37699237 156.35969094 136.88144318 155.01171875 133.82421875 C144.39695723 110.35037892 131.14857373 89.46534999 113.5078125 70.71875 C111.73497467 68.79679497 110.06056591 66.88322761 108.41015625 64.86328125 C106.46130074 62.54802827 104.61689028 60.62198815 102.3125 58.6875 C100.12801456 56.83411957 97.97771469 54.97895506 95.89453125 53.01171875 C69.29555648 27.96931049 34.53793636 11.75356993 0 1 C0 0.67 0 0.34 0 0 Z " fill="#215A5B" transform="translate(576,164)"/>
<path d="M0 0 C0.33 0 0.66 0 1 0 C0.42226739 6.20527616 -0.94413893 11.72878893 -2.9375 17.625 C-3.24469971 18.53451416 -3.55189941 19.44402832 -3.8684082 20.38110352 C-10.29719164 38.86603366 -19.42182024 55.99026911 -29 73 C-30.06537233 74.90740233 -31.1304741 76.8149558 -32.1953125 78.72265625 C-42.97326944 97.96668208 -54.29698361 116.88416569 -65.66699219 135.78222656 C-66.86644872 137.77780589 -68.06305986 139.77503959 -69.2578125 141.7734375 C-71.49803386 145.51996154 -73.74670913 149.26132259 -76 153 C-76.55010742 153.91313965 -77.10021484 154.8262793 -77.66699219 155.76708984 C-79.52463905 158.84676818 -81.38682802 161.92366163 -83.25 165 C-83.84087402 165.98009033 -84.43174805 166.96018066 -85.04052734 167.9699707 C-88.17641392 173.13712714 -91.4077148 178.13826063 -95 183 C-95.33 182.34 -95.66 181.68 -96 181 C-95.06640625 179.05834961 -95.06640625 179.05834961 -93.5625 176.65234375 C-93.0051416 175.75032227 -92.4477832 174.84830078 -91.87353516 173.91894531 C-91.25526855 172.93506836 -90.63700195 171.95119141 -90 170.9375 C-88.69448147 168.82733683 -87.38982211 166.71664192 -86.0859375 164.60546875 C-85.06838379 162.96457275 -85.06838379 162.96457275 -84.03027344 161.29052734 C-80.85054821 156.13704771 -77.73543117 150.9455046 -74.625 145.75 C-74.01060059 144.72527588 -73.39620117 143.70055176 -72.76318359 142.64477539 C-67.33166151 133.57608588 -61.93981299 124.48397811 -56.5612793 115.38378906 C-51.01003809 105.99599155 -51.01003809 105.99599155 -48.51953125 101.9140625 C-41.30251028 90.07977296 -34.59955912 77.95394704 -27.97113037 65.78289795 C-27.01579311 64.02899457 -26.05796597 62.27644815 -25.10009766 60.52392578 C-14.54520528 41.09993423 -5.95427787 21.31881309 0 0 Z " fill="#205555" transform="translate(745,445)"/>
<path d="M0 0 C-2.76130288 1.84086859 -4.37766055 2.50153443 -7.5078125 3.296875 C-8.40322754 3.52995361 -9.29864258 3.76303223 -10.22119141 4.00317383 C-11.17944824 4.24962646 -12.13770508 4.4960791 -13.125 4.75 C-41.9372219 12.42529093 -70.48714964 24.32340482 -94 43 C-95.24910156 43.96486328 -95.24910156 43.96486328 -96.5234375 44.94921875 C-101.66514428 48.97557068 -106.56595391 53.22039727 -111.3828125 57.62890625 C-112.83461575 58.94419665 -114.29473392 60.25102338 -115.78613281 61.52124023 C-121.05040161 66.01785706 -125.80002039 70.85891092 -130.5 75.9375 C-131.22703125 76.71673828 -131.9540625 77.49597656 -132.703125 78.29882812 C-134.47226605 80.19599912 -136.23779169 82.09639179 -138 84 C-138 79.7742937 -135.58228496 78.01922973 -132.8125 75.125 C-132.32974609 74.60808594 -131.84699219 74.09117187 -131.34960938 73.55859375 C-128.29796457 70.30623673 -125.16126452 67.14599271 -122 64 C-120.86691406 62.83210938 -120.86691406 62.83210938 -119.7109375 61.640625 C-114.5920021 56.4018483 -109.29840016 51.63670205 -103.54296875 47.10546875 C-100.90434094 44.99034577 -100.90434094 44.99034577 -98.34765625 42.328125 C-95.71824955 39.72059357 -93.33046171 38.60118352 -90 37 C-88.64737457 36.11362966 -87.30738019 35.20785094 -85.9765625 34.2890625 C-79.95601934 30.23277657 -73.63009439 26.76057932 -67.2890625 23.23632812 C-66.391875 22.73166016 -65.4946875 22.22699219 -64.5703125 21.70703125 C-63.76352051 21.2581958 -62.95672852 20.80936035 -62.12548828 20.34692383 C-59.9709276 19.09387804 -59.9709276 19.09387804 -58.38818359 17.36352539 C-56.26269695 15.27579361 -53.89961206 15.42931149 -51 15 C-48.81300832 14.17711677 -46.64749218 13.29605743 -44.5 12.375 C-34.56651678 8.23690117 -24.28785122 5.12609023 -14 2 C-13.31607178 1.78811035 -12.63214355 1.5762207 -11.92749023 1.35791016 C-7.83069346 0.12457131 -4.2824747 -0.17479489 0 0 Z " fill="#235D5F" transform="translate(464,160)"/>
<path d="M0 0 C0.495 1.485 0.495 1.485 1 3 C-0.45328054 5.37348 -1.95930912 7.5295266 -3.625 9.75 C-4.73505578 11.27495795 -5.84152591 12.80252944 -6.9453125 14.33203125 C-7.57856445 15.20939941 -8.21181641 16.08676758 -8.86425781 16.99072266 C-13.1783109 23.06925699 -17.32871023 29.26054828 -21.5 35.4375 C-22.42445683 36.80445846 -23.34893594 38.17140187 -24.2734375 39.53833008 C-29.55546153 47.35344835 -34.80730964 55.18799841 -40.02514648 63.04614258 C-44.49807093 69.77287242 -49.074929 76.42635702 -53.66748047 83.07177734 C-55.82332332 86.19139018 -57.97493802 89.31390089 -60.125 92.4375 C-60.56046143 93.06938232 -60.99592285 93.70126465 -61.44458008 94.35229492 C-64.39243956 98.63778638 -67.31478872 102.93990216 -70.2265625 107.25 C-71.35956202 108.92473208 -72.49273609 110.59934596 -73.62591553 112.2739563 C-74.71921666 113.89194342 -75.8091213 115.51222398 -76.89892578 117.13256836 C-81.05279146 123.27194487 -85.35644329 129.22112838 -90 135 C-90.99 134.01 -91.98 133.02 -93 132 C-92.505 131.01 -92.505 131.01 -92 130 C-90.68 130.33 -89.36 130.66 -88 131 C-87.76925781 130.32195312 -87.53851563 129.64390625 -87.30078125 128.9453125 C-85.68011747 125.27570141 -83.49120482 122.13615176 -81.1875 118.875 C-80.18066241 117.4299154 -79.17416541 115.98459345 -78.16796875 114.5390625 C-77.38172119 113.41419434 -77.38172119 113.41419434 -76.57958984 112.26660156 C-74.03096702 108.60950507 -71.51521703 104.93011786 -69 101.25 C-68.47092041 100.4768042 -67.94184082 99.7036084 -67.39672852 98.90698242 C-61.63340663 90.477759 -55.90471926 82.02502278 -50.17456055 73.57324219 C-45.0666274 66.04008304 -39.94518736 58.51632669 -34.8125 51 C-30.48496996 44.66209146 -26.19132972 38.30552962 -21.94921875 31.91015625 C-14.76537705 21.18478137 -7.3562385 10.60751428 0 0 Z " fill="#215859" transform="translate(486,521)"/>
<path d="M0 0 C-2.9892345 1.62705169 -6.065126 2.74473096 -9.27832031 3.8503418 C-24.13525902 9.05169684 -35.96706008 16.83987922 -47 28 C-47.81210937 28.80179687 -48.62421875 29.60359375 -49.4609375 30.4296875 C-69.03142612 50.80169784 -71.4168149 76.06393667 -72 103 C-77.28904709 95.06642937 -74.41508013 79.86174412 -72.9375 70.75 C-68.9545034 52.50231791 -59.78476884 35.75091118 -46 23 C-43.6875 21.6875 -43.6875 21.6875 -42 21 C-42 20.34 -42 19.68 -42 19 C-39.84676109 17.32933095 -37.70892038 15.80838818 -35.4375 14.3125 C-34.76726807 13.86841797 -34.09703613 13.42433594 -33.40649414 12.96679688 C-23.74168849 6.71966122 -11.75876259 -0.55994108 0 0 Z " fill="#235E60" transform="translate(498,302)"/>
<path d="M0 0 C2 1 2 1 2.90234375 3.5703125 C3.24394531 4.74335938 3.58554687 5.91640625 3.9375 7.125 C5.48590427 12.29535741 7.44099307 17.01108311 9.94921875 21.796875 C10.46943604 22.80089355 10.98965332 23.80491211 11.52563477 24.83935547 C12.57946453 26.83955686 13.66412776 28.82385851 14.78100586 30.78955078 C18.29955821 37.52651115 18.29955821 37.52651115 17.56665039 41.1315918 C16.25466603 43.61961428 14.68783213 45.74730897 13 48 C12.21619749 49.16190202 11.44008921 50.3290154 10.66992188 51.5 C7.88838182 55.71922683 5.03885467 59.89027107 2.1875 64.0625 C0.11945117 67.10044643 -1.94603954 70.14012952 -4.01171875 73.1796875 C-4.52323486 73.93156845 -5.03475098 74.6834494 -5.56176758 75.45811462 C-10.77598118 83.12762498 -15.91737232 90.84433828 -21.03833008 98.57641602 C-24.27329477 103.45124499 -27.56569165 108.2632464 -31 113 C-31.33 112.34 -31.66 111.68 -32 111 C-28.51960372 105.77664093 -25.03880244 100.55355857 -21.55126953 95.33496094 C-21.13555191 94.7127919 -20.71983429 94.09062286 -20.29151917 93.44960022 C-19.42219079 92.14915668 -18.55233538 90.84906532 -17.68199158 89.54930115 C-15.33640525 86.04353063 -13.00443459 82.52969257 -10.69311523 79.0012207 C-6.14895762 72.08388375 -1.54980936 65.30525224 3.53125 58.76953125 C11.75097383 48.94669683 11.75097383 48.94669683 14.90576172 37.12792969 C13.50193458 31.45507911 10.70967525 26.8042438 7.38964844 22.04736328 C5.55512018 19.34456041 4.27332612 16.50141157 3 13.5 C2.62875 12.7059375 2.2575 11.911875 1.875 11.09375 C0.28966095 7.30026012 -0.11401451 4.10452243 0 0 Z " fill="#22595A" transform="translate(365,430)"/>
<path d="M0 0 C6.57943495 1.25041998 12.17552708 3.13768891 18.1875 6.0625 C19.00831055 6.45663086 19.82912109 6.85076172 20.67480469 7.25683594 C28.18415047 10.94281688 35.12455315 15.25354541 42 20 C42.79664063 20.52980469 43.59328125 21.05960937 44.4140625 21.60546875 C45.98728588 22.67413244 47.5045321 23.82498951 49 25 C49 25.66 49 26.32 49 27 C49.56074219 27.24492187 50.12148438 27.48984375 50.69921875 27.7421875 C58.32224083 31.90961214 64.58721017 39.30281936 70 46 C70.7940625 46.9796875 71.588125 47.959375 72.40625 48.96875 C77.88451146 55.84695391 83.32154633 62.96583225 87 71 C86.67 71.66 86.34 72.32 86 73 C83.73135995 70.92188088 82.40342457 69.07714736 81.140625 66.28125 C79.07901554 62.00993816 76.59763036 58.28416723 73.75 54.5 C73.23912842 53.82074463 72.72825684 53.14148926 72.2019043 52.44165039 C60.71801048 37.58987567 46.95288074 25.76351171 31 16 C29.64648438 15.13375 29.64648438 15.13375 28.265625 14.25 C21.42409034 10.01656419 14.42017203 7.03197982 6.87866211 4.30859375 C1.09765393 2.19530786 1.09765393 2.19530786 0 0 Z " fill="#225B5C" transform="translate(561,249)"/>
<path d="M0 0 C0.66 0.33 1.32 0.66 2 1 C1.33613281 1.99 0.67226563 2.98 -0.01171875 4 C-4.43632052 10.61013758 -8.84590016 17.21497026 -13 24 C-8.19798131 32.55698068 -2.9762218 40.81928162 2.31201172 49.08081055 C6.84493301 56.16699585 11.3089621 63.2934426 15.75 70.4375 C21.33325546 79.40819477 27.05205638 88.26701925 33 97 C32.67 97.66 32.34 98.32 32 99 C26.39656645 91.51336967 21.26688228 83.84206969 16.375 75.875 C15.11330237 73.82991224 13.85030029 71.78562861 12.5859375 69.7421875 C11.98749023 68.7737793 11.38904297 67.80537109 10.77246094 66.80761719 C8.61744049 63.3940173 6.3581435 60.06042648 4.05322266 56.74658203 C3 55 3 55 3 53 C2.34 52.67 1.68 52.34 1 52 C-0.07304784 50.30274151 -1.08300005 48.56541126 -2.0625 46.8125 C-4.1059538 43.21274489 -6.17631674 39.68229071 -8.4609375 36.23046875 C-8.87206787 35.60873779 -9.28319824 34.98700684 -9.70678711 34.34643555 C-10.51535937 33.13333656 -11.33108952 31.92497242 -12.15454102 30.72192383 C-14.34876265 27.417948 -15 26.1014396 -15 22 C-13.94604492 19.95703125 -13.94604492 19.95703125 -12.48046875 17.8125 C-11.95259766 17.03132812 -11.42472656 16.25015625 -10.88085938 15.4453125 C-10.04264648 14.23488281 -10.04264648 14.23488281 -9.1875 13 C-8.36668945 11.78957031 -8.36668945 11.78957031 -7.52929688 10.5546875 C-5.09329161 6.97597432 -2.61541936 3.45039575 0 0 Z " fill="#205555" transform="translate(359,551)"/>
<path d="M0 0 C2.24623537 4.34800842 3.91665472 8.85760686 5.625 13.4375 C6.11226563 14.7069043 6.11226563 14.7069043 6.609375 16.00195312 C6.91617188 16.82501953 7.22296875 17.64808594 7.5390625 18.49609375 C7.81959473 19.24044678 8.10012695 19.9847998 8.38916016 20.75170898 C9.24684845 23.90856409 9.67875216 26.79149005 8.0390625 29.7109375 C7.57242188 30.26007813 7.10578125 30.80921875 6.625 31.375 C3.76180151 34.91181668 1.20342283 38.60527307 -1.296875 42.40234375 C-2.18701419 43.74533137 -3.07749826 45.08809043 -3.96826172 46.43066406 C-4.45212341 47.16071655 -4.93598511 47.89076904 -5.43450928 48.64294434 C-10.23751788 55.87451617 -15.08195936 63.07852188 -19.92480469 70.28344727 C-21.23738898 72.23802791 -22.54823017 74.19378012 -23.85742188 76.15063477 C-25.77309149 79.01345967 -27.69451783 81.87234191 -29.6171875 84.73046875 C-30.19951141 85.6033403 -30.78183533 86.47621185 -31.38180542 87.37553406 C-33.99777099 91.25241936 -36.47543533 94.87260722 -40 98 C-38.73377377 94.60247794 -37.28364335 91.66947473 -35.28540039 88.6472168 C-34.46798119 87.40387825 -34.46798119 87.40387825 -33.63404846 86.13542175 C-33.04453903 85.24897476 -32.4550296 84.36252777 -31.84765625 83.44921875 C-30.92550575 82.05181206 -30.92550575 82.05181206 -29.98472595 80.62617493 C-28.67967334 78.65034702 -27.37245289 76.67594953 -26.06323242 74.70288086 C-24.0967927 71.73918385 -22.13664203 68.77141376 -20.17773438 65.80273438 C-2.67859256 39.3207683 -2.67859256 39.3207683 3.41377258 31.08999634 C6.13664346 27.77001407 6.13664346 27.77001407 6.97265625 23.734375 C6.67230469 23.07953125 6.37195313 22.4246875 6.0625 21.75 C5.74796875 20.99589844 5.4334375 20.24179687 5.109375 19.46484375 C4.74328125 18.65144531 4.3771875 17.83804687 4 17 C-0.58338314 5.39629408 -0.58338314 5.39629408 0 0 Z " fill="#215A5B" transform="translate(427,413)"/>
<path d="M0 0 C0.66 0.33 1.32 0.66 2 1 C1.40574219 1.72960937 0.81148438 2.45921875 0.19921875 3.2109375 C-7.07236735 12.30450362 -13.18171643 21.92502173 -19 32 C-19.39574219 32.6801416 -19.79148437 33.3602832 -20.19921875 34.06103516 C-28.51675288 48.52091212 -34.81344532 64.16406869 -40 80 C-40.33 80 -40.66 80 -41 80 C-40.48194653 73.6301313 -38.89084196 68.44232943 -36.4375 62.5625 C-35.8974231 61.25043579 -35.8974231 61.25043579 -35.34643555 59.91186523 C-34.24684573 57.26752791 -33.12751001 54.63253903 -32 52 C-31.68643555 51.26007813 -31.37287109 50.52015625 -31.04980469 49.7578125 C-23.61228792 32.41703668 -13.45794755 13.45794755 0 0 Z " fill="#225859" transform="translate(323,245)"/>
<path d="M0 0 C6.92788991 7.94669725 7.46890163 17.89256494 7 28 C6.67 28 6.34 28 6 28 C5.88930176 27.42032471 5.77860352 26.84064941 5.66455078 26.2434082 C5.15650262 23.59875581 4.64082505 20.95564607 4.125 18.3125 C3.95097656 17.40048828 3.77695312 16.48847656 3.59765625 15.54882812 C2.42408972 9.07159645 2.42408972 9.07159645 0 3 C-2.74259464 1.48658093 -2.74259464 1.48658093 -6 2 C-10.70814946 5.57769669 -13.65625187 11.46529647 -16.73046875 16.40625 C-19.83795707 21.36875635 -23.07962608 26.24368859 -26.3125 31.125 C-26.93576172 32.07455566 -27.55902344 33.02411133 -28.20117188 34.00244141 C-29.08579102 35.3354126 -29.08579102 35.3354126 -29.98828125 36.6953125 C-30.51977783 37.49984863 -31.05127441 38.30438477 -31.59887695 39.13330078 C-33 41 -33 41 -35 42 C-33.67204345 38.41196356 -32.07891474 35.33332515 -30 32.125 C-29.38253906 31.17109375 -28.76507812 30.2171875 -28.12890625 29.234375 C-24.89474588 24.32082493 -21.64132816 19.42081852 -18.359375 14.5390625 C-16.94122334 12.42536269 -15.56057312 10.30264864 -14.203125 8.1484375 C-7.0986142 -3.09426773 -7.0986142 -3.09426773 0 0 Z " fill="#21595A" transform="translate(603,354)"/>
<path d="M0 0 C3.43709064 1.23853784 5.96647095 2.58530293 8.75 4.9375 C15.76719462 10.54656192 23.39305297 15.24310513 31 20 C32.05316406 20.67289062 33.10632813 21.34578125 34.19140625 22.0390625 C40.12225575 25.5992595 45.06506802 27.37228336 52 26 C58.28352595 23.28945939 61.39876004 17.55964622 65 12 C65.66 11.01 66.32 10.02 67 9 C67.99 9.495 67.99 9.495 69 10 C59.29559721 25.9689164 59.29559721 25.9689164 51 29 C40.43675715 31.06717081 32.14283381 23.83861664 23.8125 18.3125 C21.88835941 17.01341145 19.96957168 15.70681148 18.05273438 14.39697266 C15.87137651 12.91246627 13.67856987 11.44592439 11.484375 9.98046875 C10.01008356 8.98747355 8.5361171 7.99399566 7.0625 7 C6.35778564 6.53118408 5.65307129 6.06236816 4.92700195 5.5793457 C3.24852061 4.43764291 1.6186017 3.22511771 0 2 C0 1.34 0 0.68 0 0 Z " fill="#225D5E" transform="translate(499,388)"/>
<path d="M0 0 C0 0.33 0 0.66 0 1 C-1.15113281 0.74734375 -2.30226563 0.4946875 -3.48828125 0.234375 C-9.06730987 -0.50255595 -13.87527005 -0.55868606 -19 2 C-26.11948504 8.98329084 -31.0139824 18.04550053 -36.00292969 26.60595703 C-38.41346028 30.7026803 -41.00687088 34.63995509 -43.6875 38.5625 C-44.42900251 39.67927802 -45.16992019 40.79644464 -45.91015625 41.9140625 C-49.15105219 46.69968455 -52.54911563 51.36347659 -56 56 C-56.33 55.34 -56.66 54.68 -57 54 C-55.8984375 52.34765625 -54.796875 50.6953125 -53.6953125 49.04296875 C-52.97472656 47.96192871 -52.25414062 46.88088867 -51.51171875 45.76708984 C-49.908341 43.36194015 -48.30407949 40.95738304 -46.69921875 38.55322266 C-42.83239397 32.75897129 -38.97028508 26.9618532 -35.13302612 21.14796448 C-33.48710429 18.6547177 -31.83788295 16.16366208 -30.18841553 13.67276001 C-29.39659401 12.47494239 -28.60642945 11.27602777 -27.81793213 10.07601929 C-26.71611313 8.39950171 -25.6082032 6.72699188 -24.5 5.0546875 C-23.8709375 4.10062012 -23.241875 3.14655273 -22.59375 2.16357422 C-18.1029245 -3.9328865 -6.65386572 -1.00435709 0 0 Z " fill="#215B5B" transform="translate(526,542)"/>
<path d="M0 0 C0.33 0 0.66 0 1 0 C1.778181 28.8605385 -4.0224641 52.48484133 -22.8984375 74.8671875 C-23.59195313 75.57101562 -24.28546875 76.27484375 -25 77 C-25.66 77 -26.32 77 -27 77 C-25.60518702 73.82680048 -23.96082636 71.85294227 -21.5 69.4375 C-8.95688566 55.54394087 -1.52820805 35.34125796 -2.0625 16.6875 C-2.12297509 10.88189165 -1.42040857 5.61822318 0 0 Z " fill="#215959" transform="translate(610,384)"/>
<path d="M0 0 C2.43927454 7.31782363 -4.54939747 18.49150568 -7.875 25.1875 C-20.64721777 50.32360889 -20.64721777 50.32360889 -28 54 C-26.59784464 49.9183331 -24.64469304 47.09221363 -21.9375 43.75 C-12.81138229 31.96039417 -7.16891419 18.6563126 -2.3125 4.65625 C-1 1 -1 1 0 0 Z " fill="#225C5C" transform="translate(658,433)"/>
<path d="M0 0 C0.66 0.33 1.32 0.66 2 1 C-4.5078125 10.76171875 -11.015625 20.5234375 -17.5234375 30.28515625 C-18.00474121 31.00711182 -18.48604492 31.72906738 -18.98193359 32.47290039 C-19.48587646 33.2288147 -19.48587646 33.2288147 -20 34 C-19.319375 35.11375 -18.63875 36.2275 -17.9375 37.375 C-16.77734375 39.2734375 -16.77734375 39.2734375 -16 41 C-16.33 41.66 -16.66 42.32 -17 43 C-21 37.25 -21 37.25 -21 35 C-22.98 35.495 -22.98 35.495 -25 36 C-25 35.34 -25 34.68 -25 34 C-24.34 34 -23.68 34 -23 34 C-23 33.34 -23 32.68 -23 32 C-23.66 31.67 -24.32 31.34 -25 31 C-24.40058594 30.91492188 -23.80117188 30.82984375 -23.18359375 30.7421875 C-20.32799959 29.77159199 -19.70348013 28.64087935 -18.0625 26.125 C-17.47339844 25.24199219 -16.88429688 24.35898437 -16.27734375 23.44921875 C-15.76083252 22.66297119 -15.76083252 22.66297119 -15.23388672 21.86083984 C-13.16132942 18.7351905 -11.03509855 15.64629459 -8.91577148 12.55224609 C-7.72663735 10.81596436 -6.53992929 9.07801846 -5.35571289 7.33837891 C-4.5338147 6.1325415 -4.5338147 6.1325415 -3.6953125 4.90234375 C-3.20047363 4.17523193 -2.70563477 3.44812012 -2.19580078 2.69897461 C-1 1 -1 1 0 0 Z " fill="#245E5F" transform="translate(433,649)"/>
<path d="M0 0 C0.66 0.33 1.32 0.66 2 1 C-8.91935754 10.60474201 -28.83926781 26 -44 26 C-44 25.34 -44 24.68 -44 24 C-42.9584375 23.59910156 -41.916875 23.19820312 -40.84375 22.78515625 C-26.03036101 16.960508 -12.58912995 9.78858197 0 0 Z " fill="#236061" transform="translate(606,509)"/>
<path d="M0 0 C6.92788991 7.94669725 7.46890163 17.89256494 7 28 C6.67 28 6.34 28 6 28 C5.88930176 27.42032471 5.77860352 26.84064941 5.66455078 26.2434082 C5.15650262 23.59875581 4.64082505 20.95564607 4.125 18.3125 C3.95097656 17.40048828 3.77695312 16.48847656 3.59765625 15.54882812 C2.43837282 9.06398777 2.43837282 9.06398777 0 3 C-2.90351124 1.83551119 -2.90351124 1.83551119 -6 2 C-7.89958081 3.31318262 -7.89958081 3.31318262 -9 5 C-9.99 4.67 -10.98 4.34 -12 4 C-8.21058819 -0.05075056 -5.52193969 -2.02022184 0 0 Z " fill="#28696B" transform="translate(603,354)"/>
<path d="M0 0 C0.66 0.33 1.32 0.66 2 1 C1.34773438 1.96679688 0.69546875 2.93359375 0.0234375 3.9296875 C-4.84771962 11.17676875 -9.62339694 18.43879553 -14 26 C-14.66 25.67 -15.32 25.34 -16 25 C-14.3667828 20.06169236 -11.52422151 16.15032681 -8.5625 11.9375 C-8.07201172 11.23044922 -7.58152344 10.52339844 -7.07617188 9.79492188 C-4.77385787 6.48592806 -2.45229004 3.20044632 0 0 Z " fill="#215859" transform="translate(359,551)"/>
<path d="M0 0 C0.99 0.33 1.98 0.66 3 1 C0.94180467 3.25407044 -1.12131395 5.50327342 -3.1875 7.75 C-4.0547168 8.70132812 -4.0547168 8.70132812 -4.93945312 9.671875 C-8.10013357 13.10040972 -11.24613205 16.20050526 -15 19 C-15.66 18.67 -16.32 18.34 -17 18 C-16.5560791 17.56131592 -16.1121582 17.12263184 -15.65478516 16.6706543 C-13.64222971 14.67890386 -11.6335838 12.68325526 -9.625 10.6875 C-8.92632813 9.99720703 -8.22765625 9.30691406 -7.5078125 8.59570312 C-6.8375 7.92861328 -6.1671875 7.26152344 -5.4765625 6.57421875 C-4.85861816 5.96151123 -4.24067383 5.34880371 -3.60400391 4.7175293 C-1.80710653 2.88670835 -1.80710653 2.88670835 0 0 Z " fill="#235E5F" transform="translate(627,488)"/>
<path d="M0 0 C0.66 0 1.32 0 2 0 C0.68867299 2.92526794 -0.65634769 4.82995156 -3 7 C-4.1446875 8.175625 -4.1446875 8.175625 -5.3125 9.375 C-8.09944104 12.09712845 -10.98039127 14.54217894 -14 17 C-12.36851044 13.10667264 -9.82372058 10.35280925 -7 7.25 C-6.54882812 6.74339844 -6.09765625 6.23679687 -5.6328125 5.71484375 C-4.46639188 4.43454183 -3.23716029 3.21208271 -2 2 C-1.34 2 -0.68 2 0 2 C0 1.34 0 0.68 0 0 Z " fill="#245D5D" transform="translate(407,281)"/>
<path d="M0 0 C3.67033927 3.27708863 5.69281189 6.71522208 8 11 C8.99 10.67 9.98 10.34 11 10 C10.625 12.4375 10.625 12.4375 10 15 C9.01 15.495 9.01 15.495 8 16 C6.6583797 13.9007236 5.32663161 11.7962168 4 9.6875 C3.6184375 9.09259766 3.236875 8.49769531 2.84375 7.88476562 C0 3.33984375 0 3.33984375 0 0 Z " fill="#245E5E" transform="translate(321,534)"/>
<path d="M0 0 C6.77299898 -0.25939145 13.49710284 -0.12822089 20 2 C20.33 2.66 20.66 3.32 21 4 C18.4372008 3.68981396 15.8747789 3.37693109 13.3125 3.0625 C12.59126953 2.97548828 11.87003906 2.88847656 11.12695312 2.79882812 C7.37989416 2.33686195 3.69207089 1.80832321 0 1 C0 0.67 0 0.34 0 0 Z " fill="#1F5859" transform="translate(546,158)"/>
<path d="M0 0 C2 1 2 1 3.125 3.8125 C4.54124814 9.10130165 4.16040049 14.57311679 4 20 C3.67 20 3.34 20 3 20 C2.49685437 17.22970414 1.99736162 14.4588348 1.5 11.6875 C1.35691406 10.90181641 1.21382812 10.11613281 1.06640625 9.30664062 C0.93105469 8.54931641 0.79570313 7.79199219 0.65625 7.01171875 C0.53056641 6.31522217 0.40488281 5.61872559 0.27539062 4.90112305 C0 3 0 3 0 0 Z " fill="#21595A" transform="translate(606,362)"/>
<path d="M0 0 C0.66 0.33 1.32 0.66 2 1 C-0.64 5.29 -3.28 9.58 -6 14 C-6.66 13.34 -7.32 12.68 -8 12 C-5.36 8.04 -2.72 4.08 0 0 Z " fill="#246061" transform="translate(591,359)"/>
<path d="M0 0 C0.66 0.66 1.32 1.32 2 2 C-0.97 6.95 -0.97 6.95 -4 12 C-4.66 11.67 -5.32 11.34 -6 11 C-4.54955729 6.89041233 -2.48889248 3.56741255 0 0 Z " fill="#286667" transform="translate(349,565)"/>
<path d="M0 0 C0.66 0.33 1.32 0.66 2 1 C-0.64 4.3 -3.28 7.6 -6 11 C-6.33 10.01 -6.66 9.02 -7 8 C-5.56640625 5.95703125 -5.56640625 5.95703125 -3.5625 3.8125 C-2.90378906 3.09707031 -2.24507813 2.38164062 -1.56640625 1.64453125 C-1.04949219 1.10183594 -0.53257812 0.55914062 0 0 Z " fill="#1F5656" transform="translate(447,331)"/>
<path d="M0 0 C1 3 1 3 0.22265625 4.82421875 C-0.8515625 6.54947917 -1.92578125 8.27473958 -3 10 C-3.99 9.67 -4.98 9.34 -6 9 C-4.02 6.03 -2.04 3.06 0 0 Z " fill="#266364" transform="translate(424,453)"/>
<path d="M0 0 C0.66 0.66 1.32 1.32 2 2 C0.35 3.65 -1.3 5.3 -3 7 C-3.99 6.67 -4.98 6.34 -6 6 C-4 4 -2 2 0 0 Z " fill="#296A6C" transform="translate(453,324)"/>
<path d="M0 0 C0.33 0.99 0.66 1.98 1 3 C0.00390625 4.82421875 0.00390625 4.82421875 -1.4375 6.6875 C-1.91058594 7.31011719 -2.38367188 7.93273437 -2.87109375 8.57421875 C-3.24363281 9.04472656 -3.61617188 9.51523437 -4 10 C-4.33 9.01 -4.66 8.02 -5 7 C-4.00390625 5.17578125 -4.00390625 5.17578125 -2.5625 3.3125 C-2.08941406 2.68988281 -1.61632812 2.06726563 -1.12890625 1.42578125 C-0.75636719 0.95527344 -0.38382812 0.48476563 0 0 Z " fill="#235C5E" transform="translate(441,587)"/>
<path d="M0 0 C0.99 0.495 0.99 0.495 2 1 C2.625 4.0625 2.625 4.0625 3 7 C2.01 7.66 1.02 8.32 0 9 C0 6.03 0 3.06 0 0 Z " fill="#246467" transform="translate(365,430)"/>
<path d="M0 0 C0.66 0.33 1.32 0.66 2 1 C2 1.66 2 2.32 2 3 C1.01 2.67 0.02 2.34 -1 2 C-0.67 1.34 -0.34 0.68 0 0 Z " fill="#30787B" transform="translate(482,795)"/>
<path d="M0 0 C0.33 0 0.66 0 1 0 C1 1.65 1 3.3 1 5 C0.67 5 0.34 5 0 5 C0 3.35 0 1.7 0 0 Z " fill="#327B7D" transform="translate(272,422)"/>
<path d="M0 0 C0.99 0.495 0.99 0.495 2 1 C1.67 1.66 1.34 2.32 1 3 C0.67 2.01 0.34 1.02 0 0 Z " fill="#327A7D" transform="translate(425,708)"/>
<path d="M0 0 C4 1 4 1 4 1 Z " fill="#338387" transform="translate(539,246)"/>
<path d="M0 0 C0.99 0.495 0.99 0.495 2 1 C1.01 1.495 1.01 1.495 0 2 C0 1.34 0 0.68 0 0 Z " fill="#337A7E" transform="translate(416,696)"/>
<path d="M0 0 C0.33 0.66 0.66 1.32 1 2 C0.34 1.67 -0.32 1.34 -1 1 C-0.67 0.67 -0.34 0.34 0 0 Z " fill="#327B7E" transform="translate(381,637)"/>
<path d="M0 0 C0.66 0.66 1.32 1.32 2 2 C1.34 2 0.68 2 0 2 C0 1.34 0 0.68 0 0 Z " fill="#348487" transform="translate(483,569)"/>
<path d="M0 0 C3 1 3 1 3 1 Z " fill="#35878B" transform="translate(545,536)"/>
<path d="M0 0 C0.66 0.66 1.32 1.32 2 2 C1.34 2 0.68 2 0 2 C0 1.34 0 0.68 0 0 Z " fill="#327A7D" transform="translate(298,501)"/>
<path d="M0 0 C0.33 0.66 0.66 1.32 1 2 C0.34 1.67 -0.32 1.34 -1 1 C-0.67 0.67 -0.34 0.34 0 0 Z " fill="#338489" transform="translate(577,376)"/>
<path d="M0 0 C3 1 3 1 3 1 Z " fill="#358688" transform="translate(480,304)"/>
<path d="M0 0 C2 1 2 1 2 1 Z " fill="#2F7376" transform="translate(501,823)"/>
<path d="" fill="#32787B" transform="translate(0,0)"/>
<path d="M0 0 C2 1 2 1 2 1 Z " fill="#2F787B" transform="translate(484,799)"/>
<path d="" fill="#30777A" transform="translate(0,0)"/>
<path d="" fill="#31787B" transform="translate(0,0)"/>
<path d="M0 0 C2 1 2 1 2 1 Z " fill="#30797D" transform="translate(432,725)"/>
<path d="" fill="#30797D" transform="translate(0,0)"/>
<path d="M0 0 C2 1 2 1 2 1 Z " fill="#327A7D" transform="translate(409,685)"/>
<path d="" fill="#327C81" transform="translate(0,0)"/>
<path d="" fill="#317C7F" transform="translate(0,0)"/>
<path d="" fill="#358586" transform="translate(0,0)"/>
<path d="M0 0 C2 1 2 1 2 1 Z " fill="#378586" transform="translate(541,487)"/>
<path d="" fill="#378689" transform="translate(0,0)"/>
<path d="M0 0 C2 1 2 1 2 1 Z " fill="#378588" transform="translate(563,478)"/>
<path d="" fill="#327B7E" transform="translate(0,0)"/>
<path d="" fill="#337E82" transform="translate(0,0)"/>
<path d="" fill="#318287" transform="translate(0,0)"/>
<path d="" fill="#358284" transform="translate(0,0)"/>
<path d="" fill="#358388" transform="translate(0,0)"/>
<path d="M0 0 C2 1 2 1 2 1 Z " fill="#2F7E83" transform="translate(596,352)"/>
<path d="" fill="#368487" transform="translate(0,0)"/>
<path d="" fill="#358287" transform="translate(0,0)"/>
<path d="M0 0 C2 1 2 1 2 1 Z " fill="#358487" transform="translate(520,298)"/>
<path d="M0 0 C2 1 2 1 2 1 Z " fill="#338287" transform="translate(625,294)"/>
<path d="M0 0 C2 1 2 1 2 1 Z " fill="#3A8689" transform="translate(478,247)"/>
<path d="M0 0 C2 1 2 1 2 1 Z " fill="#368689" transform="translate(525,244)"/>
<path d="M0 0 C2 1 2 1 2 1 Z " fill="#337D81" transform="translate(582,163)"/>
<path d="M0 0 C2 1 2 1 2 1 Z " fill="#317B7F" transform="translate(574,161)"/>
<path d="M0 0 C2 1 2 1 2 1 Z " fill="#338083" transform="translate(498,153)"/>
<path d="" fill="#2E7276" transform="translate(0,0)"/>
<path d="" fill="#2E7275" transform="translate(0,0)"/>
<path d="" fill="#307577" transform="translate(0,0)"/>
<path d="" fill="#307476" transform="translate(0,0)"/>
<path d="" fill="#31767B" transform="translate(0,0)"/>
<path d="" fill="#307B7F" transform="translate(0,0)"/>
<path d="" fill="#32787B" transform="translate(0,0)"/>
<path d="" fill="#337576" transform="translate(0,0)"/>
<path d="" fill="#33797E" transform="translate(0,0)"/>
<path d="" fill="#31787C" transform="translate(0,0)"/>
<path d="" fill="#30787D" transform="translate(0,0)"/>
<path d="" fill="#30797E" transform="translate(0,0)"/>
<path d="" fill="#317C81" transform="translate(0,0)"/>
<path d="" fill="#30797A" transform="translate(0,0)"/>
<path d="" fill="#2F787C" transform="translate(0,0)"/>
<path d="" fill="#347B7F" transform="translate(0,0)"/>
<path d="" fill="#327A7C" transform="translate(0,0)"/>
<path d="" fill="#307A7F" transform="translate(0,0)"/>
<path d="" fill="#30767B" transform="translate(0,0)"/>
<path d="" fill="#32797C" transform="translate(0,0)"/>
<path d="" fill="#30787D" transform="translate(0,0)"/>
<path d="" fill="#2F7A7E" transform="translate(0,0)"/>
<path d="" fill="#32797E" transform="translate(0,0)"/>
<path d="" fill="#34787D" transform="translate(0,0)"/>
<path d="" fill="#317A7E" transform="translate(0,0)"/>
<path d="" fill="#32797C" transform="translate(0,0)"/>
<path d="" fill="#348285" transform="translate(0,0)"/>
<path d="" fill="#358183" transform="translate(0,0)"/>
<path d="" fill="#317A7E" transform="translate(0,0)"/>
<path d="" fill="#317B82" transform="translate(0,0)"/>
<path d="" fill="#32787B" transform="translate(0,0)"/>
<path d="" fill="#327D81" transform="translate(0,0)"/>
<path d="" fill="#347D80" transform="translate(0,0)"/>
<path d="" fill="#337C7E" transform="translate(0,0)"/>
<path d="" fill="#358387" transform="translate(0,0)"/>
<path d="" fill="#347B7D" transform="translate(0,0)"/>
<path d="" fill="#358083" transform="translate(0,0)"/>
<path d="" fill="#338082" transform="translate(0,0)"/>
<path d="" fill="#388386" transform="translate(0,0)"/>
<path d="" fill="#317A7E" transform="translate(0,0)"/>
<path d="" fill="#328488" transform="translate(0,0)"/>
<path d="" fill="#317B7D" transform="translate(0,0)"/>
<path d="" fill="#317E7E" transform="translate(0,0)"/>
<path d="" fill="#348081" transform="translate(0,0)"/>
<path d="" fill="#327B7D" transform="translate(0,0)"/>
<path d="" fill="#358587" transform="translate(0,0)"/>
<path d="" fill="#32797C" transform="translate(0,0)"/>
<path d="" fill="#317B7F" transform="translate(0,0)"/>
<path d="" fill="#358589" transform="translate(0,0)"/>
<path d="" fill="#327A7E" transform="translate(0,0)"/>
<path d="" fill="#337C7E" transform="translate(0,0)"/>
<path d="" fill="#327A7F" transform="translate(0,0)"/>
<path d="" fill="#347D80" transform="translate(0,0)"/>
<path d="" fill="#348689" transform="translate(0,0)"/>
<path d="" fill="#327A7E" transform="translate(0,0)"/>
<path d="" fill="#348187" transform="translate(0,0)"/>
<path d="" fill="#368588" transform="translate(0,0)"/>
<path d="" fill="#358688" transform="translate(0,0)"/>
<path d="" fill="#328185" transform="translate(0,0)"/>
<path d="" fill="#338384" transform="translate(0,0)"/>
<path d="" fill="#318387" transform="translate(0,0)"/>
<path d="" fill="#357B7F" transform="translate(0,0)"/>
<path d="" fill="#337D80" transform="translate(0,0)"/>
<path d="" fill="#337A7E" transform="translate(0,0)"/>
<path d="" fill="#378686" transform="translate(0,0)"/>
<path d="" fill="#348389" transform="translate(0,0)"/>
<path d="" fill="#307A7C" transform="translate(0,0)"/>
<path d="" fill="#327E81" transform="translate(0,0)"/>
<path d="" fill="#38888B" transform="translate(0,0)"/>
<path d="" fill="#368287" transform="translate(0,0)"/>
<path d="" fill="#347C7F" transform="translate(0,0)"/>
<path d="" fill="#307F83" transform="translate(0,0)"/>
<path d="" fill="#327B80" transform="translate(0,0)"/>
<path d="" fill="#347D80" transform="translate(0,0)"/>
<path d="" fill="#348387" transform="translate(0,0)"/>
<path d="" fill="#31787D" transform="translate(0,0)"/>
<path d="" fill="#30797D" transform="translate(0,0)"/>
<path d="" fill="#378889" transform="translate(0,0)"/>
<path d="" fill="#348085" transform="translate(0,0)"/>
<path d="" fill="#337C81" transform="translate(0,0)"/>
<path d="" fill="#338084" transform="translate(0,0)"/>
<path d="" fill="#337E80" transform="translate(0,0)"/>
<path d="" fill="#378587" transform="translate(0,0)"/>
<path d="" fill="#34858A" transform="translate(0,0)"/>
<path d="" fill="#348387" transform="translate(0,0)"/>
<path d="" fill="#348285" transform="translate(0,0)"/>
<path d="" fill="#348285" transform="translate(0,0)"/>
<path d="" fill="#327E83" transform="translate(0,0)"/>
<path d="" fill="#327D7F" transform="translate(0,0)"/>
<path d="" fill="#34888B" transform="translate(0,0)"/>
<path d="" fill="#378688" transform="translate(0,0)"/>
<path d="" fill="#31868A" transform="translate(0,0)"/>
<path d="" fill="#368487" transform="translate(0,0)"/>
<path d="" fill="#358487" transform="translate(0,0)"/>
<path d="" fill="#347C7E" transform="translate(0,0)"/>
<path d="" fill="#358387" transform="translate(0,0)"/>
<path d="" fill="#327C81" transform="translate(0,0)"/>
<path d="" fill="#317F80" transform="translate(0,0)"/>
<path d="" fill="#35888D" transform="translate(0,0)"/>
<path d="" fill="#35878B" transform="translate(0,0)"/>
<path d="" fill="#317A7E" transform="translate(0,0)"/>
<path d="" fill="#368689" transform="translate(0,0)"/>
<path d="" fill="#368285" transform="translate(0,0)"/>
<path d="" fill="#317B7D" transform="translate(0,0)"/>
<path d="" fill="#358187" transform="translate(0,0)"/>
<path d="" fill="#388487" transform="translate(0,0)"/>
<path d="" fill="#348587" transform="translate(0,0)"/>
<path d="" fill="#328589" transform="translate(0,0)"/>
<path d="" fill="#358487" transform="translate(0,0)"/>
<path d="" fill="#347C7E" transform="translate(0,0)"/>
<path d="" fill="#317A7E" transform="translate(0,0)"/>
<path d="" fill="#348386" transform="translate(0,0)"/>
<path d="" fill="#348485" transform="translate(0,0)"/>
<path d="" fill="#317E7F" transform="translate(0,0)"/>
<path d="" fill="#338485" transform="translate(0,0)"/>
<path d="" fill="#378689" transform="translate(0,0)"/>
<path d="" fill="#368286" transform="translate(0,0)"/>
<path d="" fill="#358588" transform="translate(0,0)"/>
<path d="" fill="#358586" transform="translate(0,0)"/>
<path d="" fill="#337A7D" transform="translate(0,0)"/>
<path d="" fill="#358687" transform="translate(0,0)"/>
<path d="" fill="#338387" transform="translate(0,0)"/>
<path d="" fill="#328389" transform="translate(0,0)"/>
<path d="" fill="#358689" transform="translate(0,0)"/>
<path d="" fill="#348588" transform="translate(0,0)"/>
<path d="" fill="#348488" transform="translate(0,0)"/>
<path d="" fill="#338185" transform="translate(0,0)"/>
<path d="" fill="#368588" transform="translate(0,0)"/>
<path d="" fill="#37878C" transform="translate(0,0)"/>
<path d="" fill="#34878C" transform="translate(0,0)"/>
<path d="" fill="#358688" transform="translate(0,0)"/>
<path d="" fill="#368388" transform="translate(0,0)"/>
<path d="" fill="#368588" transform="translate(0,0)"/>
<path d="" fill="#358285" transform="translate(0,0)"/>
<path d="" fill="#357E83" transform="translate(0,0)"/>
<path d="" fill="#338287" transform="translate(0,0)"/>
<path d="" fill="#348386" transform="translate(0,0)"/>
<path d="" fill="#368285" transform="translate(0,0)"/>
<path d="" fill="#388488" transform="translate(0,0)"/>
<path d="" fill="#357D80" transform="translate(0,0)"/>
<path d="" fill="#378187" transform="translate(0,0)"/>
<path d="" fill="#347D80" transform="translate(0,0)"/>
<path d="" fill="#358287" transform="translate(0,0)"/>
<path d="" fill="#368285" transform="translate(0,0)"/>
<path d="" fill="#338388" transform="translate(0,0)"/>
<path d="" fill="#368186" transform="translate(0,0)"/>
<path d="" fill="#337D7F" transform="translate(0,0)"/>
<path d="" fill="#378487" transform="translate(0,0)"/>
<path d="" fill="#358187" transform="translate(0,0)"/>
<path d="" fill="#388289" transform="translate(0,0)"/>
<path d="" fill="#388488" transform="translate(0,0)"/>
<path d="" fill="#398689" transform="translate(0,0)"/>
<path d="" fill="#327E81" transform="translate(0,0)"/>
<path d="" fill="#367D80" transform="translate(0,0)"/>
<path d="" fill="#327D82" transform="translate(0,0)"/>
<path d="" fill="#347E82" transform="translate(0,0)"/>
<path d="" fill="#368187" transform="translate(0,0)"/>
<path d="" fill="#368686" transform="translate(0,0)"/>
<path d="" fill="#368484" transform="translate(0,0)"/>
<path d="" fill="#367B7E" transform="translate(0,0)"/>
<path d="" fill="#337B7E" transform="translate(0,0)"/>
<path d="" fill="#348287" transform="translate(0,0)"/>
<path d="" fill="#368489" transform="translate(0,0)"/>
<path d="" fill="#358387" transform="translate(0,0)"/>
<path d="" fill="#327B7F" transform="translate(0,0)"/>
<path d="" fill="#317B7E" transform="translate(0,0)"/>
<path d="" fill="#368388" transform="translate(0,0)"/>
<path d="" fill="#358289" transform="translate(0,0)"/>
<path d="" fill="#368387" transform="translate(0,0)"/>
<path d="" fill="#338489" transform="translate(0,0)"/>
<path d="" fill="#337C7F" transform="translate(0,0)"/>
<path d="" fill="#358589" transform="translate(0,0)"/>
<path d="" fill="#347A7D" transform="translate(0,0)"/>
<path d="" fill="#337C7F" transform="translate(0,0)"/>
<path d="" fill="#38868C" transform="translate(0,0)"/>
<path d="" fill="#38878C" transform="translate(0,0)"/>
<path d="" fill="#368589" transform="translate(0,0)"/>
<path d="" fill="#378589" transform="translate(0,0)"/>
<path d="" fill="#348689" transform="translate(0,0)"/>
<path d="" fill="#317B81" transform="translate(0,0)"/>
<path d="" fill="#327C81" transform="translate(0,0)"/>
<path d="" fill="#307B7F" transform="translate(0,0)"/>
<path d="" fill="#307B7F" transform="translate(0,0)"/>
<path d="" fill="#31797D" transform="translate(0,0)"/>
<path d="" fill="#317C7B" transform="translate(0,0)"/>
<path d="" fill="#32797D" transform="translate(0,0)"/>
<path d="" fill="#337A7D" transform="translate(0,0)"/>
<path d="" fill="#337E80" transform="translate(0,0)"/>
<path d="" fill="#327E80" transform="translate(0,0)"/>
<path d="" fill="#337C82" transform="translate(0,0)"/>
<path d="" fill="#327C80" transform="translate(0,0)"/>
<path d="" fill="#357E80" transform="translate(0,0)"/>
<path d="" fill="#347E80" transform="translate(0,0)"/>
<path d="" fill="#327C7E" transform="translate(0,0)"/>
<path d="" fill="#337C7F" transform="translate(0,0)"/>
<path d="" fill="#347D83" transform="translate(0,0)"/>
<path d="" fill="#337F81" transform="translate(0,0)"/>
<path d="" fill="#348183" transform="translate(0,0)"/>
<path d="" fill="#337F82" transform="translate(0,0)"/>
<path d="" fill="#347D80" transform="translate(0,0)"/>
<path d="" fill="#327E81" transform="translate(0,0)"/>
<path d="" fill="#337D80" transform="translate(0,0)"/>
<path d="" fill="#347C82" transform="translate(0,0)"/>
<path d="" fill="#357C82" transform="translate(0,0)"/>
<path d="" fill="#367F84" transform="translate(0,0)"/>
<path d="" fill="#327B81" transform="translate(0,0)"/>
<path d="" fill="#347F81" transform="translate(0,0)"/>
</svg>
