<?xml version="1.0" standalone="no"?>
<!DOCTYPE svg PUBLIC "-//W3C//DTD SVG 20010904//EN"
 "http://www.w3.org/TR/2001/REC-SVG-20010904/DTD/svg10.dtd">
<svg version="1.0" xmlns="http://www.w3.org/2000/svg"
 width="1024.000000pt" height="1024.000000pt" viewBox="0 0 1024.000000 1024.000000"
 preserveAspectRatio="xMidYMid meet">

<g transform="translate(0.000000,1024.000000) scale(0.100000,-0.100000)"
fill="#000000" stroke="none">
<path d="M4845 9559 c-458 -29 -961 -145 -1403 -325 -970 -394 -1813 -1169
-2278 -2095 -290 -579 -445 -1214 -461 -1884 -15 -623 76 -1167 282 -1695 449
-1150 1359 -2071 2500 -2528 394 -158 803 -256 1245 -297 247 -24 786 -16
1010 14 502 68 930 198 1368 416 468 233 848 508 1202 869 735 750 1140 1586
1255 2591 37 315 35 789 -4 1088 -179 1368 -918 2492 -2116 3217 -788 477
-1660 688 -2600 629z m620 -414 c221 -20 347 -37 530 -75 896 -186 1706 -678
2305 -1400 112 -135 276 -373 362 -525 289 -510 464 -1060 522 -1640 19 -186
14 -652 -8 -827 -119 -937 -523 -1746 -1202 -2408 -430 -419 -926 -729 -1479
-925 -922 -326 -2027 -293 -2920 87 -293 125 -613 304 -815 456 -440 331 -831
762 -1104 1215 -287 478 -454 964 -532 1549 -22 165 -30 644 -15 832 41 488
167 965 364 1378 397 833 1062 1496 1908 1902 648 310 1374 443 2084 381z"/>
<path d="M7405 7408 c-22 -6 -62 -25 -90 -43 -29 -18 -639 -624 -1475 -1463
-973 -979 -1431 -1432 -1445 -1432 -11 0 -25 4 -32 8 -6 4 -292 286 -635 628
-590 587 -629 623 -699 658 -133 65 -255 67 -389 5 -57 -26 -93 -59 -286 -252
-239 -240 -269 -280 -294 -402 -21 -99 8 -234 67 -314 16 -21 471 -484 1013
-1029 925 -931 989 -993 1051 -1022 134 -62 255 -63 378 -1 58 30 478 447
2222 2206 354 358 823 830 1042 1051 219 220 409 417 423 437 61 90 75 223 34
330 -30 78 -65 120 -312 364 -188 187 -223 216 -284 245 -60 28 -81 33 -159
35 -49 1 -108 -3 -130 -9z m332 -561 c160 -160 191 -196 187 -214 -3 -12 -795
-810 -1760 -1772 -1300 -1298 -1759 -1751 -1776 -1751 -16 0 -231 208 -813
789 -434 433 -865 862 -957 951 -139 135 -168 168 -168 191 0 23 30 58 176
201 96 95 185 175 196 176 16 3 175 -150 717 -692 596 -595 704 -699 751 -720
67 -31 102 -32 174 -5 59 21 126 88 1676 1654 1009 1020 1376 1385 1390 1385
8 0 101 -87 207 -193z"/>
</g>
</svg>
