<?xml version="1.0" standalone="no"?>
<!DOCTYPE svg PUBLIC "-//W3C//DTD SVG 20010904//EN"
 "http://www.w3.org/TR/2001/REC-SVG-20010904/DTD/svg10.dtd">
<svg version="1.0" xmlns="http://www.w3.org/2000/svg"
 width="1024.000000pt" height="1024.000000pt" viewBox="0 0 1024.000000 1024.000000"
 preserveAspectRatio="xMidYMid meet">

<g transform="translate(0.000000,1024.000000) scale(0.100000,-0.100000)"
fill="#000000" stroke="none">
<path d="M4909 9659 c-384 -19 -819 -100 -1179 -219 -448 -149 -917 -388
-1284 -655 -204 -148 -330 -257 -557 -484 -378 -379 -644 -747 -855 -1186
-304 -632 -460 -1323 -457 -2030 2 -680 161 -1326 489 -1990 599 -1212 1712
-2112 2995 -2420 527 -126 1140 -157 1697 -85 1140 147 2198 750 2936 1674
424 531 739 1158 891 1778 46 191 101 518 115 689 30 371 0 871 -75 1254 -222
1121 -803 2060 -1695 2736 -576 436 -1295 755 -1970 873 -329 58 -717 82
-1051 65z m701 -433 c473 -60 822 -156 1233 -339 592 -264 1156 -695 1543
-1180 113 -142 299 -415 382 -563 469 -831 645 -1836 481 -2743 -100 -555
-326 -1108 -652 -1595 -568 -852 -1433 -1469 -2397 -1711 -288 -73 -572 -112
-902 -123 -852 -30 -1637 166 -2310 579 -940 576 -1626 1522 -1892 2611 -119
484 -147 1031 -80 1523 152 1108 756 2108 1677 2779 580 421 1318 699 2037
765 63 6 133 13 155 15 98 10 607 -3 725 -18z"/>
<path d="M3066 7690 c-95 -24 -148 -66 -378 -298 -127 -128 -234 -244 -246
-267 -70 -139 -69 -288 4 -426 22 -42 213 -240 878 -906 l851 -853 -846 -847
c-549 -550 -856 -865 -874 -896 -84 -147 -85 -312 0 -447 15 -25 129 -147 254
-272 198 -199 234 -231 292 -258 123 -57 237 -57 354 0 53 25 162 131 918 889
652 654 864 861 882 861 17 0 228 -207 882 -865 987 -994 899 -920 1088 -920
172 0 184 7 487 312 204 205 251 258 273 305 32 70 42 134 34 213 -14 137 32
85 -921 1040 -477 479 -868 877 -868 885 0 8 391 406 868 885 996 997 917 903
917 1095 0 171 -7 184 -269 448 -116 118 -233 229 -259 249 -126 93 -308 108
-444 37 -35 -18 -289 -266 -913 -890 -476 -475 -872 -864 -880 -864 -8 0 -406
391 -885 869 -980 978 -914 921 -1073 927 -48 2 -104 -1 -126 -6z m1041 -1322
c667 -667 915 -909 950 -927 60 -30 132 -31 193 -4 35 15 232 208 895 874 468
469 875 877 905 906 85 81 82 82 276 -114 124 -127 164 -174 164 -193 0 -19
-188 -213 -904 -930 -687 -689 -908 -916 -925 -951 -26 -57 -27 -120 0 -179
15 -35 224 -249 924 -950 498 -498 905 -912 905 -920 0 -7 -77 -92 -172 -187
-134 -135 -178 -173 -198 -173 -21 0 -195 169 -915 890 -490 490 -912 905
-940 923 -43 28 -58 32 -115 32 -43 -1 -77 -7 -100 -19 -19 -10 -442 -425
-940 -922 -801 -800 -909 -904 -936 -904 -25 0 -54 24 -197 168 -124 125 -167
175 -167 193 0 19 198 222 896 919 492 492 906 913 919 935 33 57 38 102 19
165 -15 54 -39 78 -926 967 -850 850 -911 914 -910 944 1 29 21 54 164 196
148 147 168 163 198 163 32 0 94 -59 937 -902z"/>
</g>
</svg>
